<svg width="1180" height="610" viewBox="0 0 1180 610" xmlns="http://www.w3.org/2000/svg" role="img" aria-label="Fadilah Nur Yasin profile header">
<style>
  .pill { transition: transform .25s ease; transform-box: fill-box; transform-origin: center; }
  .pill:hover { transform: scale(1.09); }
  .pillg:hover .pill-glow { opacity: 1; }
  .mono { font-family: "SFMono-Regular", Consolas, "Liberation Mono", Menlo, monospace; }
  .sans { font-family: -apple-system, "Segoe UI", Inter, Roboto, Helvetica, Arial, sans-serif; }
</style>
<linearGradient id="glassRefL" x1="0%" y1="0%" x2="0%" y2="100%">
      <stop offset="0%" stop-color="#FFFFFF" stop-opacity="0.10"/>
      <stop offset="100%" stop-color="#FFFFFF" stop-opacity="0"/>
    </linearGradient>
    <linearGradient id="glassRefR" x1="0%" y1="0%" x2="0%" y2="100%">
      <stop offset="0%" stop-color="#FFFFFF" stop-opacity="0.08"/>
      <stop offset="100%" stop-color="#FFFFFF" stop-opacity="0"/>
    </linearGradient>
<defs>
<clipPath id="canvasClip"><rect x="0" y="0" width="1180" height="610" rx="26" ry="26"/></clipPath>
<clipPath id="leftClip"><rect x="18" y="18" width="430" height="574" rx="20" ry="20"/></clipPath>
<clipPath id="rightClip"><rect x="464" y="18" width="700" height="574" rx="20" ry="20"/></clipPath>
<radialGradient id="blobViolet" cx="50%" cy="50%" r="50%">
      <stop offset="0%" stop-color="#2563EB" stop-opacity="0.12"/>
      <stop offset="100%" stop-color="#2563EB" stop-opacity="0"/>
    </radialGradient>
    <radialGradient id="blobCyan" cx="50%" cy="50%" r="50%">
      <stop offset="0%" stop-color="#06B6D4" stop-opacity="0.12"/>
      <stop offset="100%" stop-color="#06B6D4" stop-opacity="0"/>
    </radialGradient>
    <radialGradient id="blobEmerald" cx="50%" cy="50%" r="50%">
      <stop offset="0%" stop-color="#10B981" stop-opacity="0.12"/>
      <stop offset="100%" stop-color="#10B981" stop-opacity="0"/>
    </radialGradient>
<linearGradient id="asciiGrad" x1="0%" y1="0%" x2="100%" y2="100%">
      <stop offset="0%" stop-color="#2563EB">
        <animate attributeName="stop-color" values="#2563EB;#06B6D4;#10B981;#2563EB" dur="6s" repeatCount="indefinite"/>
      </stop>
      <stop offset="50%" stop-color="#06B6D4">
        <animate attributeName="stop-color" values="#06B6D4;#10B981;#2563EB;#06B6D4" dur="6s" repeatCount="indefinite"/>
      </stop>
      <stop offset="100%" stop-color="#10B981">
        <animate attributeName="stop-color" values="#10B981;#2563EB;#06B6D4;#10B981" dur="6s" repeatCount="indefinite"/>
      </stop>
      <animateTransform attributeName="gradientTransform" type="rotate" values="0 0.5 0.5;360 0.5 0.5" dur="14s" repeatCount="indefinite"/>
    </linearGradient>
<linearGradient id="nameGrad" x1="0%" y1="0%" x2="100%" y2="0%">
      <stop offset="0%" stop-color="#2563EB"/>
      <stop offset="50%" stop-color="#06B6D4"/>
      <stop offset="100%" stop-color="#10B981"/>
      <animate attributeName="x1" values="0%;40%;0%" dur="8s" repeatCount="indefinite"/>
      <animate attributeName="x2" values="100%;140%;100%" dur="8s" repeatCount="indefinite"/>
    </linearGradient>
<linearGradient id="borderGrad" x1="0%" y1="0%" x2="100%" y2="100%">
      <stop offset="0%" stop-color="#2563EB" stop-opacity="0"/>
      <stop offset="45%" stop-color="#06B6D4" stop-opacity="0.9"/>
      <stop offset="55%" stop-color="#06B6D4" stop-opacity="0.9"/>
      <stop offset="100%" stop-color="#10B981" stop-opacity="0"/>
      <animateTransform attributeName="gradientTransform" type="translate" values="-1.2 -1.2; 1.2 1.2; -1.2 -1.2" dur="5s" repeatCount="indefinite"/>
    </linearGradient>
<linearGradient id="panelBorderGrad" x1="0%" y1="0%" x2="100%" y2="0%">
      <stop offset="0%" stop-color="#2563EB" stop-opacity="0"/>
      <stop offset="50%" stop-color="#06B6D4" stop-opacity="0.55"/>
      <stop offset="100%" stop-color="#2563EB" stop-opacity="0"/>
      <animate attributeName="x1" values="-30%;130%" dur="4.5s" repeatCount="indefinite"/>
      <animate attributeName="x2" values="70%;230%" dur="4.5s" repeatCount="indefinite"/>
    </linearGradient>
<linearGradient id="scanGrad" x1="0%" y1="0%" x2="0%" y2="100%">
      <stop offset="0%" stop-color="#06B6D4" stop-opacity="0"/>
      <stop offset="50%" stop-color="#06B6D4" stop-opacity="0.5"/>
      <stop offset="100%" stop-color="#06B6D4" stop-opacity="0"/>
    </linearGradient>
<linearGradient id="pillGrad" x1="0%" y1="0%" x2="100%" y2="100%">
      <stop offset="0%" stop-color="#2563EB" stop-opacity="0.18"/>
      <stop offset="100%" stop-color="#06B6D4" stop-opacity="0.18"/>
    </linearGradient>
<filter id="softGlow" x="-60%" y="-60%" width="220%" height="220%">
      <feGaussianBlur stdDeviation="4" result="b"/>
      <feMerge><feMergeNode in="b"/><feMergeNode in="SourceGraphic"/></feMerge>
    </filter>
    <filter id="strongGlow" x="-100%" y="-100%" width="300%" height="300%">
      <feGaussianBlur stdDeviation="7" result="b"/>
      <feMerge><feMergeNode in="b"/><feMergeNode in="b"/><feMergeNode in="SourceGraphic"/></feMerge>
    </filter>
    <filter id="blurBig" x="-50%" y="-50%" width="200%" height="200%">
      <feGaussianBlur stdDeviation="40"/>
    </filter>
    <filter id="pillGlow" x="-80%" y="-80%" width="260%" height="260%">
      <feGaussianBlur stdDeviation="3" result="b">
        <animate attributeName="stdDeviation" values="1.5;3.5;1.5" dur="3s" repeatCount="indefinite"/>
      </feGaussianBlur>
      <feMerge><feMergeNode in="b"/><feMergeNode in="SourceGraphic"/></feMerge>
    </filter>
    <filter id="noiseF" x="0" y="0" width="100%" height="100%">
      <feTurbulence type="fractalNoise" baseFrequency="0.85" numOctaves="2" stitchTiles="stitch" result="n"/>
      <feColorMatrix in="n" type="matrix" values="0 0 0 0 1  0 0 0 0 1  0 0 0 0 1  0 0 0 0.05 0"/>
    </filter>
</defs>
<g clip-path="url(#canvasClip)">
<rect x="0" y="0" width="1180" height="610" fill="#FFFFFF"/>
<g filter="url(#blurBig)">
      <circle cx="180" cy="120" r="220" fill="url(#blobViolet)">
        <animateTransform attributeName="transform" type="translate" values="0,0;30,20;0,0" dur="12s" repeatCount="indefinite"/>
      </circle>
      <circle cx="950" cy="480" r="260" fill="url(#blobCyan)">
        <animateTransform attributeName="transform" type="translate" values="0,0;-25,-15;0,0" dur="14s" repeatCount="indefinite"/>
      </circle>
      <circle cx="700" cy="80" r="180" fill="url(#blobEmerald)">
        <animateTransform attributeName="transform" type="translate" values="0,0;20,25;0,0" dur="10s" repeatCount="indefinite"/>
      </circle>
    </g>
<rect x="0" y="0" width="1180" height="610" filter="url(#noiseF)" opacity="0.02"/>
<rect x="1" y="1" width="1178" height="608" rx="25" ry="25" fill="none" stroke="url(#borderGrad)" stroke-width="1.5"/>
<rect x="1" y="1" width="1178" height="608" rx="25" ry="25" fill="none" stroke="rgba(15,23,42,.08)" stroke-width="1"/>
<g>
<circle cx="693" cy="545" r="1.2" fill="#2563EB" opacity="0.5">
        <animateTransform attributeName="transform" type="translate" values="0,0;-31,-26;0,0" dur="10.6s" repeatCount="indefinite"/>
        <animate attributeName="opacity" values="0;0.7;0" dur="10.6s" repeatCount="indefinite"/>
      </circle>
<circle cx="222" cy="247" r="1.9" fill="#06B6D4" opacity="0.5">
        <animateTransform attributeName="transform" type="translate" values="0,0;-13,-58;0,0" dur="12.4s" repeatCount="indefinite"/>
        <animate attributeName="opacity" values="0;0.7;0" dur="12.4s" repeatCount="indefinite"/>
      </circle>
<circle cx="206" cy="282" r="1.7" fill="#10B981" opacity="0.5">
        <animateTransform attributeName="transform" type="translate" values="0,0;30,-33;0,0" dur="7.7s" repeatCount="indefinite"/>
        <animate attributeName="opacity" values="0;0.7;0" dur="7.7s" repeatCount="indefinite"/>
      </circle>
<circle cx="151" cy="483" r="1.9" fill="#2563EB" opacity="0.5">
        <animateTransform attributeName="transform" type="translate" values="0,0;40,-20;0,0" dur="12.6s" repeatCount="indefinite"/>
        <animate attributeName="opacity" values="0;0.7;0" dur="12.6s" repeatCount="indefinite"/>
      </circle>
<circle cx="156" cy="355" r="1.9" fill="#06B6D4" opacity="0.5">
        <animateTransform attributeName="transform" type="translate" values="0,0;-12,-58;0,0" dur="6.3s" repeatCount="indefinite"/>
        <animate attributeName="opacity" values="0;0.7;0" dur="6.3s" repeatCount="indefinite"/>
      </circle>
<circle cx="302" cy="208" r="1.7" fill="#10B981" opacity="0.5">
        <animateTransform attributeName="transform" type="translate" values="0,0;33,-41;0,0" dur="9.8s" repeatCount="indefinite"/>
        <animate attributeName="opacity" values="0;0.7;0" dur="9.8s" repeatCount="indefinite"/>
      </circle>
<circle cx="400" cy="112" r="1.9" fill="#2563EB" opacity="0.5">
        <animateTransform attributeName="transform" type="translate" values="0,0;7,-54;0,0" dur="10.5s" repeatCount="indefinite"/>
        <animate attributeName="opacity" values="0;0.7;0" dur="10.5s" repeatCount="indefinite"/>
      </circle>
<circle cx="158" cy="348" r="1.1" fill="#06B6D4" opacity="0.5">
        <animateTransform attributeName="transform" type="translate" values="0,0;28,-33;0,0" dur="7.4s" repeatCount="indefinite"/>
        <animate attributeName="opacity" values="0;0.7;0" dur="7.4s" repeatCount="indefinite"/>
      </circle>
<circle cx="673" cy="298" r="1.9" fill="#10B981" opacity="0.5">
        <animateTransform attributeName="transform" type="translate" values="0,0;-2,-45;0,0" dur="9.2s" repeatCount="indefinite"/>
        <animate attributeName="opacity" values="0;0.7;0" dur="9.2s" repeatCount="indefinite"/>
      </circle>
<circle cx="398" cy="417" r="2.2" fill="#2563EB" opacity="0.5">
        <animateTransform attributeName="transform" type="translate" values="0,0;-2,-27;0,0" dur="6.6s" repeatCount="indefinite"/>
        <animate attributeName="opacity" values="0;0.7;0" dur="6.6s" repeatCount="indefinite"/>
      </circle>
<circle cx="1043" cy="508" r="1.5" fill="#06B6D4" opacity="0.5">
        <animateTransform attributeName="transform" type="translate" values="0,0;37,-56;0,0" dur="9.1s" repeatCount="indefinite"/>
        <animate attributeName="opacity" values="0;0.7;0" dur="9.1s" repeatCount="indefinite"/>
      </circle>
<circle cx="271" cy="322" r="1.7" fill="#10B981" opacity="0.5">
        <animateTransform attributeName="transform" type="translate" values="0,0;-21,-29;0,0" dur="11.3s" repeatCount="indefinite"/>
        <animate attributeName="opacity" values="0;0.7;0" dur="11.3s" repeatCount="indefinite"/>
      </circle>
<circle cx="893" cy="80" r="2.5" fill="#2563EB" opacity="0.5">
        <animateTransform attributeName="transform" type="translate" values="0,0;31,-24;0,0" dur="6.5s" repeatCount="indefinite"/>
        <animate attributeName="opacity" values="0;0.7;0" dur="6.5s" repeatCount="indefinite"/>
      </circle>
<circle cx="672" cy="234" r="2.1" fill="#06B6D4" opacity="0.5">
        <animateTransform attributeName="transform" type="translate" values="0,0;34,-31;0,0" dur="10.2s" repeatCount="indefinite"/>
        <animate attributeName="opacity" values="0;0.7;0" dur="10.2s" repeatCount="indefinite"/>
      </circle>
</g>
<g>
<rect x="18" y="18" width="430" height="574" rx="20" ry="20" fill="#F8FAFC" fill-opacity="0.75"/>
<rect x="18" y="18" width="430" height="230" rx="20" ry="20" fill="url(#glassRefL)" opacity="0.5" clip-path="url(#leftClip)"/>
<rect x="18" y="18" width="430" height="574" rx="20" ry="20" fill="none" stroke="rgba(15,23,42,.08)" stroke-width="1"/>
<rect x="18" y="18" width="430" height="3" rx="1.5" fill="url(#panelBorderGrad)"/>
<g clip-path="url(#leftClip)">
<g transform="translate(64,88)">
<animateTransform attributeName="transform" type="translate" additive="sum" values="0,0;0,-7;0,0" dur="5s" repeatCount="indefinite"/>
<g opacity="0">
          <animate attributeName="opacity" begin="0.0s" dur="0.5s" values="0;1" fill="freeze"/>
          <text x="0" y="0" class="mono" font-size="12.5" fill="url(#asciiGrad)" style="letter-spacing:0px">        .:^~~~~~^:.        </text>
        </g>
<g opacity="0">
          <animate attributeName="opacity" begin="0.11s" dur="0.5s" values="0;1" fill="freeze"/>
          <text x="0" y="21" class="mono" font-size="12.5" fill="url(#asciiGrad)" style="letter-spacing:0px">     :~!!!!!!!!!!!!!~:     </text>
        </g>
<g opacity="0">
          <animate attributeName="opacity" begin="0.22s" dur="0.5s" values="0;1" fill="freeze"/>
          <text x="0" y="42" class="mono" font-size="12.5" fill="url(#asciiGrad)" style="letter-spacing:0px">   ^!!!!!!!!!!!!!!!!!!!^   </text>
        </g>
<g opacity="0">
          <animate attributeName="opacity" begin="0.33s" dur="0.5s" values="0;1" fill="freeze"/>
          <text x="0" y="63" class="mono" font-size="12.5" fill="url(#asciiGrad)" style="letter-spacing:0px">  ~!!!!!!!!!!!!!!!!!!!!!~  </text>
        </g>
<g opacity="0">
          <animate attributeName="opacity" begin="0.44s" dur="0.5s" values="0;1" fill="freeze"/>
          <text x="0" y="84" class="mono" font-size="12.5" fill="url(#asciiGrad)" style="letter-spacing:0px"> ~!!!!!!!!!!!!!!!!!!!!!!!~ </text>
        </g>
<g opacity="0">
          <animate attributeName="opacity" begin="0.55s" dur="0.5s" values="0;1" fill="freeze"/>
          <text x="0" y="105" class="mono" font-size="12.5" fill="url(#asciiGrad)" style="letter-spacing:0px">:!!!!!!!!#@@@@@@@#!!!!!!!!:</text>
        </g>
<g opacity="0">
          <animate attributeName="opacity" begin="0.66s" dur="0.5s" values="0;1" fill="freeze"/>
          <text x="0" y="126" class="mono" font-size="12.5" fill="url(#asciiGrad)" style="letter-spacing:0px">!!!!!!!#@@@@@@@@@@@#!!!!!!!</text>
        </g>
<g opacity="0">
          <animate attributeName="opacity" begin="0.77s" dur="0.5s" values="0;1" fill="freeze"/>
          <text x="0" y="147" class="mono" font-size="12.5" fill="url(#asciiGrad)" style="letter-spacing:0px">!!!!!!#@@@@@@@@@@@@@#!!!!!!</text>
        </g>
<g opacity="0">
          <animate attributeName="opacity" begin="0.88s" dur="0.5s" values="0;1" fill="freeze"/>
          <text x="0" y="168" class="mono" font-size="12.5" fill="url(#asciiGrad)" style="letter-spacing:0px">!!!!!!#@@@@@@@@@@@@@#!!!!!!</text>
        </g>
<g opacity="0">
          <animate attributeName="opacity" begin="0.99s" dur="0.5s" values="0;1" fill="freeze"/>
          <text x="0" y="189" class="mono" font-size="12.5" fill="url(#asciiGrad)" style="letter-spacing:0px">!!!!!!!#@@@@@@@@@@@#!!!!!!!</text>
        </g>
<g opacity="0">
          <animate attributeName="opacity" begin="1.1s" dur="0.5s" values="0;1" fill="freeze"/>
          <text x="0" y="210" class="mono" font-size="12.5" fill="url(#asciiGrad)" style="letter-spacing:0px">:!!!!!!!!#@@@@@@@#!!!!!!!!:</text>
        </g>
<g opacity="0">
          <animate attributeName="opacity" begin="1.21s" dur="0.5s" values="0;1" fill="freeze"/>
          <text x="0" y="231" class="mono" font-size="12.5" fill="url(#asciiGrad)" style="letter-spacing:0px"> ~!!!!!!!!!#####!!!!!!!!~  </text>
        </g>
<g opacity="0">
          <animate attributeName="opacity" begin="1.32s" dur="0.5s" values="0;1" fill="freeze"/>
          <text x="0" y="252" class="mono" font-size="12.5" fill="url(#asciiGrad)" style="letter-spacing:0px">  ~!!!!!!!!!!!!!!!!!!!!~   </text>
        </g>
<g opacity="0">
          <animate attributeName="opacity" begin="1.43s" dur="0.5s" values="0;1" fill="freeze"/>
          <text x="0" y="273" class="mono" font-size="12.5" fill="url(#asciiGrad)" style="letter-spacing:0px">   ^!!!!!!!!!!!!!!!!!!^    </text>
        </g>
<g opacity="0">
          <animate attributeName="opacity" begin="1.54s" dur="0.5s" values="0;1" fill="freeze"/>
          <text x="0" y="294" class="mono" font-size="12.5" fill="url(#asciiGrad)" style="letter-spacing:0px">     :~!!!!!!!!!!!!~:      </text>
        </g>
<g opacity="0">
          <animate attributeName="opacity" begin="1.65s" dur="0.5s" values="0;1" fill="freeze"/>
          <text x="0" y="315" class="mono" font-size="12.5" fill="url(#asciiGrad)" style="letter-spacing:0px">        .:^~~~~^:.         </text>
        </g>
<g opacity="0">
          <animate attributeName="opacity" begin="1.76s" dur="0.5s" values="0;1" fill="freeze"/>
          <text x="0" y="336" class="mono" font-size="12.5" fill="url(#asciiGrad)" style="letter-spacing:0px">&#160;</text>
        </g>
<g opacity="0">
          <animate attributeName="opacity" begin="1.87s" dur="0.5s" values="0;1" fill="freeze"/>
          <text x="0" y="357" class="mono" font-size="12.5" fill="url(#asciiGrad)" style="letter-spacing:0px">     &lt; fadilah.dev /&gt;      </text>
        </g>
<rect x="4" y="346" width="8" height="14" fill="#06B6D4" opacity="0">
      <animate attributeName="opacity" begin="2.38s" values="0;1;0;1;0;1;0" dur="1.6s" repeatCount="indefinite"/>
    </rect>
</g>
<rect x="18" y="0" width="430" height="3" fill="url(#scanGrad)" opacity="0.4">
<animate attributeName="y" values="18;592;18" dur="5s" repeatCount="indefinite"/>
</rect>
</g>
<text x="233" y="492" text-anchor="middle" class="mono" font-size="12" fill="#475569" opacity="0">
      <animate attributeName="opacity" begin="2.6799999999999997s" dur="0.6s" values="0;1" fill="freeze"/>
      building intelligent systems, one commit at a time
    </text>
</g>
<g>
<rect x="464" y="18" width="700" height="574" rx="20" ry="20" fill="#F8FAFC" fill-opacity="0.75"/>
<rect x="464" y="18" width="700" height="201" rx="20" ry="20" fill="url(#glassRefR)" opacity="0.5" clip-path="url(#rightClip)"/>
<rect x="464" y="18" width="700" height="574" rx="20" ry="20" fill="none" stroke="rgba(15,23,42,.08)" stroke-width="1"/>
<rect x="464" y="18" width="700" height="3" rx="1.5" fill="url(#panelBorderGrad)"/>
<line x1="464" y1="58" x2="1164" y2="58" stroke="rgba(15,23,42,.08)" stroke-width="1"/>
<circle cx="490" cy="38" r="6" fill="#FF5F56" stroke="#E2E8F0" stroke-width="0.5"/>
<circle cx="510" cy="38" r="6" fill="#FFBD2E" stroke="#E2E8F0" stroke-width="0.5"/>
<circle cx="530" cy="38" r="6" fill="#27C93F" stroke="#E2E8F0" stroke-width="0.5"/>
<text x="814" y="42" text-anchor="middle" class="mono" font-size="12" fill="#475569">fadilah@portfolio &#8212; zsh</text>
<g opacity="0" transform="translate(0,10)">
      <animate attributeName="opacity" begin="0.2s" dur="0.5s" values="0;1" fill="freeze"/>
      <animateTransform attributeName="transform" type="translate" begin="0.2s" dur="0.5s" values="0,10;0,0" fill="freeze"/>
      <text x="504" y="102" class="sans" font-size="26" font-weight="600" fill="#0F172A">Hi&#160;&#160;<tspan font-size="24">&#128075;</tspan></text>
    </g>
<g opacity="0">
      <animate attributeName="opacity" begin="0.7s" dur="0.5s" values="0;1" fill="freeze"/>
      <text x="504" y="144" class="sans" font-size="30" font-weight="800" fill="url(#nameGrad)">I&#39;m Fadilah Nur Yasin</text>
    </g>
<text x="504" y="186" class="mono" font-size="16.5" fill="#06B6D4">&gt;&#160;</text>
<clipPath id="typeCliplight0"><rect x="0" y="0" height="26" width="0">
<animate attributeName="width" keyTimes="0.00000;0.08125;0.20179;0.24554;1.00000" values="0.00;120.40;120.40;0.00;0.00" dur="11.200s" begin="1.1s" repeatCount="indefinite"/>
</rect></clipPath>
<g clip-path="url(#typeCliplight0)" transform="translate(528,168)">
<text x="0" y="18" class="mono" font-size="16.5" font-weight="600" fill="#0F172A">Data Scientist</text>
</g>
<clipPath id="typeCliplight1"><rect x="0" y="0" height="26" width="0">
<animate attributeName="width" keyTimes="0.00000;0.27679;0.42188;0.54241;0.62054;1.00000" values="0.00;0.00;215.00;215.00;0.00;0.00" dur="11.200s" begin="1.1s" repeatCount="indefinite"/>
</rect></clipPath>
<g clip-path="url(#typeCliplight1)" transform="translate(528,168)">
<text x="0" y="18" class="mono" font-size="16.5" font-weight="600" fill="#0F172A">Machine Learning Engineer</text>
</g>
<clipPath id="typeCliplight2"><rect x="0" y="0" height="26" width="0">
<animate attributeName="width" keyTimes="0.00000;0.65179;0.77946;0.90000;0.96875;1.00000" values="0.00;0.00;189.20;189.20;0.00;0.00" dur="11.200s" begin="1.1s" repeatCount="indefinite"/>
</rect></clipPath>
<g clip-path="url(#typeCliplight2)" transform="translate(528,168)">
<text x="0" y="18" class="mono" font-size="16.5" font-weight="600" fill="#0F172A">AI Engineer Enthusiast</text>
</g>
<rect y="171" width="9" height="18" fill="#06B6D4">
      <animate attributeName="x" keyTimes="0.00000;0.08125;0.20179;0.24554;0.27679;0.42188;0.54241;0.62054;0.65179;0.77946;0.90000;0.96875;1.00000" values="528.0;648.4;648.4;528.0;528.0;743.0;743.0;528.0;528.0;717.2;717.2;528.0;528.0" dur="11.200s" begin="1.1s" repeatCount="indefinite"/>
      <animate attributeName="opacity" values="1;0;1" dur="0.8s" repeatCount="indefinite"/>
    </rect>
<line x1="504" y1="212" x2="1124" y2="212" stroke="rgba(15,23,42,.08)" stroke-width="1"/>
<g opacity="0" transform="translate(-14,0)">
          <animate attributeName="opacity" begin="1.3s" dur="0.45s" values="0;1" fill="freeze"/>
          <animateTransform attributeName="transform" type="translate" begin="1.3s" dur="0.45s" values="-14,0;0,0" fill="freeze"/>
          <g transform="translate(504,230) scale(0.72)" fill="none" stroke="#06B6D4" stroke-width="1.6">
            <path d="M12 2C8.1 2 5 5.1 5 9c0 5.2 7 13 7 13s7-7.8 7-13c0-3.9-3.1-7-7-7zm0 9.5A2.5 2.5 0 1 1 12 6.5a2.5 2.5 0 0 1 0 5z" fill="#06B6D4" stroke="none"/>
          </g>
          <text x="526" y="244" class="sans" font-size="13" fill="#475569">Location:</text>
          <text x="622" y="244" class="sans" font-size="13.5" font-weight="600" fill="#0F172A">Karawang, West Java, Indonesia</text>
        </g>
<g opacity="0" transform="translate(-14,0)">
          <animate attributeName="opacity" begin="1.52s" dur="0.45s" values="0;1" fill="freeze"/>
          <animateTransform attributeName="transform" type="translate" begin="1.52s" dur="0.45s" values="-14,0;0,0" fill="freeze"/>
          <g transform="translate(504,264) scale(0.72)" fill="none" stroke="#06B6D4" stroke-width="1.6">
            <path d="M12 3 1 8l11 5 9-4.1V17h2V8L12 3zM5 12.2V16c0 2 3 4 7 4s7-2 7-4v-3.8l-7 3.1-7-3.1z" fill="#06B6D4" stroke="none"/>
          </g>
          <text x="526" y="278" class="sans" font-size="13" fill="#475569">Education:</text>
          <text x="622" y="278" class="sans" font-size="13.5" font-weight="600" fill="#0F172A">B.Sc. in Computer Science</text>
        </g>
<g opacity="0" transform="translate(-14,0)">
          <animate attributeName="opacity" begin="1.74s" dur="0.45s" values="0;1" fill="freeze"/>
          <animateTransform attributeName="transform" type="translate" begin="1.74s" dur="0.45s" values="-14,0;0,0" fill="freeze"/>
          <g transform="translate(504,298) scale(0.72)" fill="none" stroke="#06B6D4" stroke-width="1.6">
            <path d="M12 2a7 7 0 0 0-4 12.7V17h8v-2.3A7 7 0 0 0 12 2zM9 20h6v1a1 1 0 0 1-1 1h-4a1 1 0 0 1-1-1v-1z" fill="#06B6D4" stroke="none"/>
          </g>
          <text x="526" y="312" class="sans" font-size="13" fill="#475569">Current Focus:</text>
          <text x="622" y="312" class="sans" font-size="13.5" font-weight="600" fill="#0F172A">Applied Machine Learning &amp; NLP</text>
        </g>
<g opacity="0" transform="translate(-14,0)">
          <animate attributeName="opacity" begin="1.96s" dur="0.45s" values="0;1" fill="freeze"/>
          <animateTransform attributeName="transform" type="translate" begin="1.96s" dur="0.45s" values="-14,0;0,0" fill="freeze"/>
          <g transform="translate(504,332) scale(0.72)" fill="none" stroke="#06B6D4" stroke-width="1.6">
            <path d="M12 2a10 10 0 1 0 0 20 10 10 0 0 0 0-20zm7.9 9h-3.1a15.6 15.6 0 0 0-1.3-5.7A8 8 0 0 1 19.9 11zM12 4c.8 1.2 1.7 3.4 1.9 7H10.1c.2-3.6 1.1-5.8 1.9-7zM4.1 11a8 8 0 0 1 4.4-5.7A15.6 15.6 0 0 0 7.2 11H4.1zm0 2h3.1c.2 2.1.7 4 1.3 5.7A8 8 0 0 1 4.1 13zM12 20c-.8-1.2-1.7-3.4-1.9-7h3.8c-.2 3.6-1.1 5.8-1.9 7zm3.5-1.3c.6-1.7 1.1-3.6 1.3-5.7h3.1a8 8 0 0 1-4.4 5.7z" fill="#06B6D4" stroke="none"/>
          </g>
          <text x="526" y="346" class="sans" font-size="13" fill="#475569">Portfolio:</text>
          <text x="622" y="346" class="sans" font-size="13.5" font-weight="600" fill="#0F172A">fadilahnuryasin.dev</text>
        </g>
<g opacity="0" transform="translate(-14,0)">
          <animate attributeName="opacity" begin="2.18s" dur="0.45s" values="0;1" fill="freeze"/>
          <animateTransform attributeName="transform" type="translate" begin="2.18s" dur="0.45s" values="-14,0;0,0" fill="freeze"/>
          <g transform="translate(504,366) scale(0.72)" fill="none" stroke="#06B6D4" stroke-width="1.6">
            <path d="M4 4h16a2 2 0 0 1 2 2v12a2 2 0 0 1-2 2H4a2 2 0 0 1-2-2V6a2 2 0 0 1 2-2zm0 2v.01L12 12l8-5.99V6H4zm16 2.24-7.4 5.55a1 1 0 0 1-1.2 0L4 8.24V18h16V8.24z" fill="#06B6D4" stroke="none"/>
          </g>
          <text x="526" y="380" class="sans" font-size="13" fill="#475569">Email:</text>
          <text x="622" y="380" class="sans" font-size="13.5" font-weight="600" fill="#0F172A">hello@fadilahnuryasin.dev</text>
        </g>
<line x1="504" y1="420" x2="1124" y2="420" stroke="rgba(15,23,42,.08)" stroke-width="1"/>
<text x="504" y="446" class="sans" font-size="13" font-weight="700" fill="#475569" opacity="0" style="letter-spacing:1.5px">
      <animate attributeName="opacity" begin="2.6s" dur="0.4s" values="0;1" fill="freeze"/>
      SKILLS
    </text>
<g class="pill pillg" opacity="0" transform="translate(504,466) scale(0.85)">
              <animate attributeName="opacity" begin="2.75s" dur="0.35s" values="0;1" fill="freeze"/>
              <animateTransform attributeName="transform" type="scale" begin="2.75s" dur="0.4s" values="0.85;1.03;1" fill="freeze" additive="sum"/>
              <rect class="pill-glow" width="64.5" height="27" rx="14" fill="#06B6D4" opacity="0" filter="url(#pillGlow)"/>
              <rect width="64.5" height="27" rx="14" fill="url(#pillGrad)" stroke="rgba(15,23,42,.08)" stroke-width="1"/>
              <text x="32.2" y="18.0" text-anchor="middle" class="mono" font-size="11.5" fill="#0F172A">React</text>
            </g>
<g class="pill pillg" opacity="0" transform="translate(578.5,466) scale(0.85)">
              <animate attributeName="opacity" begin="2.8s" dur="0.35s" values="0;1" fill="freeze"/>
              <animateTransform attributeName="transform" type="scale" begin="2.8s" dur="0.4s" values="0.85;1.03;1" fill="freeze" additive="sum"/>
              <rect class="pill-glow" width="101.0" height="27" rx="14" fill="#06B6D4" opacity="0" filter="url(#pillGlow)"/>
              <rect width="101.0" height="27" rx="14" fill="url(#pillGrad)" stroke="rgba(15,23,42,.08)" stroke-width="1"/>
              <text x="50.5" y="18.0" text-anchor="middle" class="mono" font-size="11.5" fill="#0F172A">TypeScript</text>
            </g>
<g class="pill pillg" opacity="0" transform="translate(689.5,466) scale(0.85)">
              <animate attributeName="opacity" begin="2.85s" dur="0.35s" values="0;1" fill="freeze"/>
              <animateTransform attributeName="transform" type="scale" begin="2.85s" dur="0.4s" values="0.85;1.03;1" fill="freeze" additive="sum"/>
              <rect class="pill-glow" width="86.4" height="27" rx="14" fill="#06B6D4" opacity="0" filter="url(#pillGlow)"/>
              <rect width="86.4" height="27" rx="14" fill="url(#pillGrad)" stroke="rgba(15,23,42,.08)" stroke-width="1"/>
              <text x="43.2" y="18.0" text-anchor="middle" class="mono" font-size="11.5" fill="#0F172A">Tailwind</text>
            </g>
<g class="pill pillg" opacity="0" transform="translate(785.9,466) scale(0.85)">
              <animate attributeName="opacity" begin="2.9s" dur="0.35s" values="0;1" fill="freeze"/>
              <animateTransform attributeName="transform" type="scale" begin="2.9s" dur="0.4s" values="0.85;1.03;1" fill="freeze" additive="sum"/>
              <rect class="pill-glow" width="71.8" height="27" rx="14" fill="#06B6D4" opacity="0" filter="url(#pillGlow)"/>
              <rect width="71.8" height="27" rx="14" fill="url(#pillGrad)" stroke="rgba(15,23,42,.08)" stroke-width="1"/>
              <text x="35.9" y="18.0" text-anchor="middle" class="mono" font-size="11.5" fill="#0F172A">Python</text>
            </g>
<g class="pill pillg" opacity="0" transform="translate(867.6999999999999,466) scale(0.85)">
              <animate attributeName="opacity" begin="2.95s" dur="0.35s" values="0;1" fill="freeze"/>
              <animateTransform attributeName="transform" type="scale" begin="2.95s" dur="0.4s" values="0.85;1.03;1" fill="freeze" additive="sum"/>
              <rect class="pill-glow" width="71.8" height="27" rx="14" fill="#06B6D4" opacity="0" filter="url(#pillGlow)"/>
              <rect width="71.8" height="27" rx="14" fill="url(#pillGrad)" stroke="rgba(15,23,42,.08)" stroke-width="1"/>
              <text x="35.9" y="18.0" text-anchor="middle" class="mono" font-size="11.5" fill="#0F172A">Docker</text>
            </g>
<g class="pill pillg" opacity="0" transform="translate(949.4999999999999,466) scale(0.85)">
              <animate attributeName="opacity" begin="3.0s" dur="0.35s" values="0;1" fill="freeze"/>
              <animateTransform attributeName="transform" type="scale" begin="3.0s" dur="0.4s" values="0.85;1.03;1" fill="freeze" additive="sum"/>
              <rect class="pill-glow" width="79.1" height="27" rx="14" fill="#06B6D4" opacity="0" filter="url(#pillGlow)"/>
              <rect width="79.1" height="27" rx="14" fill="url(#pillGrad)" stroke="rgba(15,23,42,.08)" stroke-width="1"/>
              <text x="39.5" y="18.0" text-anchor="middle" class="mono" font-size="11.5" fill="#0F172A">seaborn</text>
            </g>
<g class="pill pillg" opacity="0" transform="translate(1038.6,466) scale(0.85)">
              <animate attributeName="opacity" begin="3.05s" dur="0.35s" values="0;1" fill="freeze"/>
              <animateTransform attributeName="transform" type="scale" begin="3.05s" dur="0.4s" values="0.85;1.03;1" fill="freeze" additive="sum"/>
              <rect class="pill-glow" width="71.8" height="27" rx="14" fill="#06B6D4" opacity="0" filter="url(#pillGlow)"/>
              <rect width="71.8" height="27" rx="14" fill="url(#pillGrad)" stroke="rgba(15,23,42,.08)" stroke-width="1"/>
              <text x="35.9" y="18.0" text-anchor="middle" class="mono" font-size="11.5" fill="#0F172A">pandas</text>
            </g>
<g class="pill pillg" opacity="0" transform="translate(504,502) scale(0.85)">
              <animate attributeName="opacity" begin="3.1s" dur="0.35s" values="0;1" fill="freeze"/>
              <animateTransform attributeName="transform" type="scale" begin="3.1s" dur="0.4s" values="0.85;1.03;1" fill="freeze" additive="sum"/>
              <rect class="pill-glow" width="144.8" height="27" rx="14" fill="#06B6D4" opacity="0" filter="url(#pillGlow)"/>
              <rect width="144.8" height="27" rx="14" fill="url(#pillGrad)" stroke="rgba(15,23,42,.08)" stroke-width="1"/>
              <text x="72.4" y="18.0" text-anchor="middle" class="mono" font-size="11.5" fill="#0F172A">jupyter notebook</text>
            </g>
<g class="pill pillg" opacity="0" transform="translate(658.8,502) scale(0.85)">
              <animate attributeName="opacity" begin="3.15s" dur="0.35s" values="0;1" fill="freeze"/>
              <animateTransform attributeName="transform" type="scale" begin="3.15s" dur="0.4s" values="0.85;1.03;1" fill="freeze" additive="sum"/>
              <rect class="pill-glow" width="64.5" height="27" rx="14" fill="#06B6D4" opacity="0" filter="url(#pillGlow)"/>
              <rect width="64.5" height="27" rx="14" fill="url(#pillGrad)" stroke="rgba(15,23,42,.08)" stroke-width="1"/>
              <text x="32.2" y="18.0" text-anchor="middle" class="mono" font-size="11.5" fill="#0F172A">flask</text>
            </g>
<g class="pill pillg" opacity="0" transform="translate(733.3,502) scale(0.85)">
              <animate attributeName="opacity" begin="3.2s" dur="0.35s" values="0;1" fill="freeze"/>
              <animateTransform attributeName="transform" type="scale" begin="3.2s" dur="0.4s" values="0.85;1.03;1" fill="freeze" additive="sum"/>
              <rect class="pill-glow" width="64.5" height="27" rx="14" fill="#06B6D4" opacity="0" filter="url(#pillGlow)"/>
              <rect width="64.5" height="27" rx="14" fill="url(#pillGrad)" stroke="rgba(15,23,42,.08)" stroke-width="1"/>
              <text x="32.2" y="18.0" text-anchor="middle" class="mono" font-size="11.5" fill="#0F172A">numpy</text>
            </g>
<g class="pill pillg" opacity="0" transform="translate(807.8,502) scale(0.85)">
              <animate attributeName="opacity" begin="3.25s" dur="0.35s" values="0;1" fill="freeze"/>
              <animateTransform attributeName="transform" type="scale" begin="3.25s" dur="0.4s" values="0.85;1.03;1" fill="freeze" additive="sum"/>
              <rect class="pill-glow" width="115.6" height="27" rx="14" fill="#06B6D4" opacity="0" filter="url(#pillGlow)"/>
              <rect width="115.6" height="27" rx="14" fill="url(#pillGrad)" stroke="rgba(15,23,42,.08)" stroke-width="1"/>
              <text x="57.8" y="18.0" text-anchor="middle" class="mono" font-size="11.5" fill="#0F172A">scikit-learn</text>
            </g>
<g class="pill pillg" opacity="0" transform="translate(933.4,502) scale(0.85)">
              <animate attributeName="opacity" begin="3.3s" dur="0.35s" values="0;1" fill="freeze"/>
              <animateTransform attributeName="transform" type="scale" begin="3.3s" dur="0.4s" values="0.85;1.03;1" fill="freeze" additive="sum"/>
              <rect class="pill-glow" width="49.9" height="27" rx="14" fill="#06B6D4" opacity="0" filter="url(#pillGlow)"/>
              <rect width="49.9" height="27" rx="14" fill="url(#pillGrad)" stroke="rgba(15,23,42,.08)" stroke-width="1"/>
              <text x="24.9" y="18.0" text-anchor="middle" class="mono" font-size="11.5" fill="#0F172A">Git</text>
            </g>
<g class="pill pillg" opacity="0" transform="translate(993.3,502) scale(0.85)">
              <animate attributeName="opacity" begin="3.35s" dur="0.35s" values="0;1" fill="freeze"/>
              <animateTransform attributeName="transform" type="scale" begin="3.35s" dur="0.4s" values="0.85;1.03;1" fill="freeze" additive="sum"/>
              <rect class="pill-glow" width="64.5" height="27" rx="14" fill="#06B6D4" opacity="0" filter="url(#pillGlow)"/>
              <rect width="64.5" height="27" rx="14" fill="url(#pillGrad)" stroke="rgba(15,23,42,.08)" stroke-width="1"/>
              <text x="32.2" y="18.0" text-anchor="middle" class="mono" font-size="11.5" fill="#0F172A">Figma</text>
            </g>
<line x1="504" y1="538" x2="1124" y2="538" stroke="rgba(15,23,42,.08)" stroke-width="1"/>
<g opacity="0" transform="translate(0,8)">
          <animate attributeName="opacity" begin="3.6s" dur="0.4s" values="0;1" fill="freeze"/>
          <animateTransform attributeName="transform" type="translate" begin="3.6s" dur="0.4s" values="0,8;0,0" fill="freeze"/>
          <circle cx="520" cy="562" r="17" fill="#F8FAFC" stroke="rgba(15,23,42,.08)" stroke-width="1" filter="url(#softGlow)">
            <animate attributeName="r" values="17;18;17" dur="3s" begin="0.0s" repeatCount="indefinite"/>
          </circle>
          <g transform="translate(511,553) scale(0.75)" fill="#06B6D4">
            <path d="M12 2a10 10 0 0 0-3.16 19.49c.5.09.68-.22.68-.48v-1.7c-2.78.6-3.37-1.34-3.37-1.34-.46-1.16-1.11-1.47-1.11-1.47-.9-.62.07-.6.07-.6 1 .07 1.53 1.03 1.53 1.03.9 1.53 2.34 1.09 2.91.83.09-.65.35-1.09.63-1.34-2.22-.25-4.56-1.11-4.56-4.94 0-1.09.39-1.98 1.03-2.68-.1-.25-.45-1.27.1-2.65 0 0 .84-.27 2.75 1.02a9.4 9.4 0 0 1 5 0c1.91-1.3 2.75-1.02 2.75-1.02.55 1.38.2 2.4.1 2.65.64.7 1.03 1.59 1.03 2.68 0 3.84-2.34 4.68-4.57 4.93.36.31.68.92.68 1.85v2.74c0 .27.18.58.69.48A10 10 0 0 0 12 2z"/>
          </g>
        </g>
<g opacity="0" transform="translate(0,8)">
          <animate attributeName="opacity" begin="3.72s" dur="0.4s" values="0;1" fill="freeze"/>
          <animateTransform attributeName="transform" type="translate" begin="3.72s" dur="0.4s" values="0,8;0,0" fill="freeze"/>
          <circle cx="566" cy="562" r="17" fill="#F8FAFC" stroke="rgba(15,23,42,.08)" stroke-width="1" filter="url(#softGlow)">
            <animate attributeName="r" values="17;18;17" dur="3s" begin="0.4s" repeatCount="indefinite"/>
          </circle>
          <g transform="translate(557,553) scale(0.75)" fill="#06B6D4">
            <path d="M6.94 5a2 2 0 1 1-4-.02 2 2 0 0 1 4 .02zM3.3 8.75h3.4V21H3.3V8.75zm5.5 0h3.26v1.68h.05c.45-.86 1.56-1.77 3.22-1.77 3.45 0 4.08 2.27 4.08 5.22V21h-3.4v-5.5c0-1.31-.02-3-1.83-3-1.83 0-2.11 1.43-2.11 2.9V21H8.8V8.75z"/>
          </g>
        </g>
<g opacity="0" transform="translate(0,8)">
          <animate attributeName="opacity" begin="3.84s" dur="0.4s" values="0;1" fill="freeze"/>
          <animateTransform attributeName="transform" type="translate" begin="3.84s" dur="0.4s" values="0,8;0,0" fill="freeze"/>
          <circle cx="612" cy="562" r="17" fill="#F8FAFC" stroke="rgba(15,23,42,.08)" stroke-width="1" filter="url(#softGlow)">
            <animate attributeName="r" values="17;18;17" dur="3s" begin="0.8s" repeatCount="indefinite"/>
          </circle>
          <g transform="translate(603,553) scale(0.75)" fill="#06B6D4">
            <path d="M18.9 2H22l-7.4 8.5L23.3 22h-6.8l-5.3-6.9L5 22H1.9l7.9-9.1L1 2h7l4.8 6.4L18.9 2zm-1.2 18h1.9L7.4 3.9H5.4L17.7 20z"/>
          </g>
        </g>
<g opacity="0" transform="translate(0,8)">
          <animate attributeName="opacity" begin="3.96s" dur="0.4s" values="0;1" fill="freeze"/>
          <animateTransform attributeName="transform" type="translate" begin="3.96s" dur="0.4s" values="0,8;0,0" fill="freeze"/>
          <circle cx="658" cy="562" r="17" fill="#F8FAFC" stroke="rgba(15,23,42,.08)" stroke-width="1" filter="url(#softGlow)">
            <animate attributeName="r" values="17;18;17" dur="3s" begin="1.2000000000000002s" repeatCount="indefinite"/>
          </circle>
          <g transform="translate(649,553) scale(0.75)" fill="#06B6D4">
            <path d="M20 6h-3V4a2 2 0 0 0-2-2H9a2 2 0 0 0-2 2v2H4a2 2 0 0 0-2 2v11a2 2 0 0 0 2 2h16a2 2 0 0 0 2-2V8a2 2 0 0 0-2-2zM9 4h6v2H9V4z"/>
          </g>
        </g>
</g>
</g>
</svg>